<?xml version="1.0" encoding="iso-8859-1"?>
<!-- Generator: Adobe Illustrator 19.0.0, SVG Export Plug-In . SVG Version: 6.00 Build 0)  -->
<svg version="1.1" id="Layer_1" xmlns="http://www.w3.org/2000/svg" xmlns:xlink="http://www.w3.org/1999/xlink" x="0px" y="0px"
	 viewBox="0 0 512.088 512.088" style="enable-background:new 0 0 512.088 512.088;" xml:space="preserve">
<rect y="383.12" width="512" height="72.72"/>
<g style="opacity:0.2;">
	<rect x="72.744" y="383.12" style="fill:#FFFFFF;" width="439.344" height="35.624"/>
</g>
<rect y="383.12" width="72.72" height="72.72"/>
<rect x="0.04" y="56.248" style="fill:#DBDBDB;" width="511.96" height="326.912"/>
<polygon style="fill:#FFFFFF;" points="55.44,420.192 26.2,403.312 26.2,437.08 "/>
<rect x="107.696" y="414.752" style="fill:#999999;" width="314.72" height="8"/>
<circle style="fill:#E21B1B;" cx="200.824" cy="419.856" r="11.776"/>
<g>
	<rect x="453.248" y="402.736" style="fill:#999999;" width="8" height="32"/>
	<rect x="473.224" y="402.736" style="fill:#999999;" width="8" height="32"/>
</g>
<path style="fill:#E21B1B;" d="M336.744,320.848h-161.44c-15.848,0-28.696-12.848-28.696-28.696v-143.08
	c0-15.848,12.848-28.696,28.696-28.696h161.44c15.848,0,28.696,12.848,28.696,28.696v143.08
	C365.44,308,352.592,320.848,336.744,320.848z"/>
<polygon style="fill:#FFFFFF;" points="303.88,219.384 222.848,172.6 222.848,266.168 "/>
<g>
</g>
<g>
</g>
<g>
</g>
<g>
</g>
<g>
</g>
<g>
</g>
<g>
</g>
<g>
</g>
<g>
</g>
<g>
</g>
<g>
</g>
<g>
</g>
<g>
</g>
<g>
</g>
<g>
</g>
</svg>
